<svg width="32" height="32" viewBox="0 0 32 32" fill="none" xmlns="http://www.w3.org/2000/svg">
  <rect width="32" height="32" rx="6" fill="oklch(0.65 0.18 250)"/>
  <path d="M16 10C13.7909 10 12 11.7909 12 14C12 14.5523 11.5523 15 11 15C10.4477 15 10 14.5523 10 14C10 10.6863 12.6863 8 16 8C19.3137 8 22 10.6863 22 14C22 14.5523 21.5523 15 21 15C20.4477 15 20 14.5523 20 14C20 11.7909 18.2091 10 16 10Z" fill="oklch(0.98 0 0)"/>
  <path d="M24 18C24 20.2091 22.2091 22 20 22H12C9.79086 22 8 20.2091 8 18C8 15.7909 9.79086 14 12 14C12.5523 14 13 14.4477 13 15C13 15.5523 12.5523 16 12 16C10.8954 16 10 16.8954 10 18C10 19.1046 10.8954 20 12 20H20C21.1046 20 22 19.1046 22 18C22 16.8954 21.1046 16 20 16C19.4477 16 19 15.5523 19 15C19 14.4477 19.4477 14 20 14C22.2091 14 24 15.7909 24 18Z" fill="oklch(0.98 0 0)"/>
</svg>

